<svg width="18" height="15" viewBox="0 0 18 15" fill="none" xmlns="http://www.w3.org/2000/svg">
<path d="M13.577 15L7.81005 9.234C5.65387 10.6564 2.77106 10.2164 1.13737 8.21555C-0.496313 6.21469 -0.350859 3.30213 1.47405 1.474C3.30186 -0.351607 6.21475 -0.49769 8.21604 1.13588C10.2173 2.76946 10.6576 5.6526 9.23505 7.809L15 13.576L13.577 15ZM5.03405 2.01399C3.5933 2.01308 2.35253 3.03002 2.07053 4.4429C1.78854 5.85579 2.54386 7.27112 3.87457 7.82335C5.20529 8.37558 6.74079 7.91091 7.54203 6.71351C8.34327 5.51611 8.18711 3.91946 7.16905 2.9C6.6043 2.33134 5.83549 2.0123 5.03405 2.01399ZM16 6H14V4H12V2H14V0H16V2H18V4H16V6Z" fill="white"/>
</svg>
